<svg width="373" height="313" viewBox="0 0 373 313" fill="none" xmlns="http://www.w3.org/2000/svg">
<path d="M113.751 0L134.097 20.3486V312.166H72.1347V68.4454L13.4097 90.1814L0 52.2589L11.56 27.2857L84.6196 0H113.751Z" fill="#E84427"/>
<path d="M283.091 0C291.723 0 298.967 1.23325 304.824 3.69975C310.681 6.16624 316.692 10.4826 322.858 16.6489L344.591 38.3849C348.598 42.7013 351.681 46.8635 353.839 50.8716C356.305 54.5713 358 58.7335 358.925 63.3582C360.158 67.6746 360.775 72.7618 360.775 78.6197V110.53C360.775 131.495 353.376 145.832 338.579 153.54L220.667 213.198C219.434 213.815 218.817 214.74 218.817 215.973V256.208H372.797V294.13L354.301 312.166H157.318V215.51C157.318 192.079 169.186 174.197 192.923 161.864L297.426 108.68C298.659 108.064 299.275 107.139 299.275 105.905V79.5446C299.275 78.3114 298.813 77.0781 297.888 75.8449L279.854 57.3461C278.93 56.4212 277.696 55.9587 276.155 55.9587H233.152C231.61 55.9587 230.377 56.4212 229.453 57.3461L198.934 88.3315L156.855 46.2469L186.449 16.6489C192.615 10.4826 198.626 6.16624 204.483 3.69975C210.34 1.23325 217.584 0 226.216 0H283.091Z" fill="#E84427"/>
</svg>
