<svg width="283" height="96" viewBox="0 0 283 96" fill="none" xmlns="http://www.w3.org/2000/svg">
<path d="M101.549 12.7671V11.7084L100.789 10.9717L93.4724 3.8828L92.7453 3.17822H91.7328H70.4651H68.6201L68.0762 4.94119L52.5918 55.1297L36.952 4.93454L36.4048 3.17822H34.5652H13.2975H12.285L11.5579 3.8828L4.24178 10.9717L3.48145 11.7084V12.7671V90.0697V92.5697H5.98145H27.5894H30.0894V90.0697V57.0182L41.2077 90.8502L41.7728 92.5697H43.5827H61.4476H63.2575L63.8226 90.8502L74.9409 57.0182V90.0697V92.5697H77.4409H99.0489H101.549V90.0697V12.7671ZM163.987 90.0697V92.5697H166.487H188.095H190.595V90.0697V28.4639C190.595 23.1808 188.682 18.6045 184.922 14.8743L178.797 8.79809C175.025 5.05601 170.359 3.17822 164.956 3.17822H148.793C143.39 3.17822 138.724 5.05601 134.952 8.79809L128.827 14.8743L128.728 14.9719L128.641 15.0797L127.28 16.7676L127.256 16.798L127.232 16.8292C126.855 17.3287 126.487 17.8732 126.13 18.4582C125.684 19.0671 125.322 19.7313 125.036 20.4401L124.972 20.5985L124.931 20.7641C124.839 21.1281 124.69 21.624 124.475 22.2666L124.425 22.4151L124.394 22.5688C124.286 23.101 124.182 23.5674 124.08 23.971C123.977 24.381 123.815 24.9689 123.591 25.7466L123.544 25.9119L123.519 26.0822C123.414 26.8149 123.311 27.4251 123.213 27.9197L108.083 89.4729L107.322 92.5697H110.511H132.119H134.07L134.544 90.6774L149.686 30.2531L149.701 30.1966L149.712 30.1395C149.719 30.1035 149.726 30.0704 149.733 30.04L152.204 27.5882H161.544L163.987 30.0117V90.0697ZM280.5 5.67822V3.17822H278H256.393H253.893V5.67822V34.9094H230.139V5.67822V3.17822H227.639H206.031H203.531V5.67822V90.0697V92.5697H206.031H227.639H230.139V90.0697V59.4882H253.893V90.0697V92.5697H256.393H278H280.5V90.0697V5.67822Z" fill="white" stroke="#E84427" stroke-width="5"/>
</svg>
