<svg width="214" height="65" viewBox="0 0 214 65" fill="none" xmlns="http://www.w3.org/2000/svg">
<path d="M13.0719 0.5H200.802C205.373 0.5 208.521 1.37408 210.53 3.17756C212.526 4.96949 213.5 7.77428 213.5 11.8912V53.1853C213.5 57.2924 212.526 60.077 210.531 61.8521C208.523 63.6396 205.375 64.5 200.802 64.5H13.0508C8.48734 64.5 5.37842 63.6441 3.40526 61.8639C1.44475 60.0951 0.5 57.3157 0.5 53.2044V11.8912C0.5 7.69986 0.9764 4.92113 2.68887 3.15341C4.40081 1.38626 7.47795 0.5 13.0719 0.5Z" fill="white" stroke="#DBDBDB"/>
<path fill-rule="evenodd" clip-rule="evenodd" d="M61.9663 40.4529C61.0062 42.6132 60.5356 43.5882 59.312 45.5C57.5801 48.1764 55.1517 51.5029 52.1209 51.522C49.429 51.5411 48.7513 49.7441 45.0993 49.7632C41.4661 49.7823 40.6943 51.5411 38.0212 51.522C35.0092 51.5029 32.6938 48.4823 30.9619 45.8058C26.1239 38.3308 25.6156 29.5558 28.6088 24.8911C30.736 21.5838 34.068 19.6338 37.2117 19.6338C40.4119 19.6338 42.4262 21.4117 45.0616 21.4117C47.6218 21.4117 49.1843 19.6338 52.8928 19.6338C55.6976 19.6338 58.6531 21.1823 60.7615 23.8588C53.8528 27.7397 54.9823 37.7764 61.9663 40.4529Z" fill="#393939"/>
<path fill-rule="evenodd" clip-rule="evenodd" d="M50.1055 16.689C51.4421 14.9301 52.4775 12.464 52.101 9.94043C49.8985 10.0934 47.3383 11.5081 45.8323 13.3625C44.4769 15.0448 43.3475 17.5301 43.7804 19.9581C46.1712 20.0154 48.656 18.5625 50.1055 16.689Z" fill="#393939"/>
<path fill-rule="evenodd" clip-rule="evenodd" d="M186.174 43.9701H176.46C176.498 45.3084 176.969 46.4746 177.872 47.2584C178.682 47.9466 179.755 48.2716 181.054 48.2716C182.503 48.2716 183.802 48.0231 184.988 47.5451L185.496 49.8201C184.122 50.4319 182.484 50.7187 180.602 50.7187C178.343 50.7187 176.573 50.0496 175.274 48.6922C173.994 47.3349 173.335 45.5378 173.335 43.2628C173.335 41.026 173.938 39.1716 175.143 37.6804C176.404 36.0937 178.117 35.3099 180.244 35.3099C182.352 35.3099 183.934 36.0937 185.007 37.6804C185.873 38.9422 186.306 40.5672 186.306 42.4025C186.287 42.9951 186.249 43.5878 186.174 43.9701ZM172.357 38.5407C172.168 38.4834 171.66 38.4643 171.302 38.4643C170.154 38.4643 169.269 38.904 168.648 39.7643C168.102 40.529 167.82 41.504 167.82 42.6893V50.279H164.62V40.2996C164.62 38.5981 164.544 37.0878 164.488 35.5584H167.311L167.424 38.6172H167.519C167.857 37.6613 168.403 36.801 169.137 36.2084C169.853 35.6731 170.662 35.3863 171.509 35.3863C171.811 35.3863 172.149 35.3672 172.338 35.4054V38.5407H172.357ZM160.648 48.5393C159.311 50.0304 157.523 50.7951 155.301 50.7951C153.155 50.7951 151.442 50.0687 150.181 48.6349C148.92 47.201 148.28 45.3657 148.28 43.1863C148.28 40.8922 148.939 39.0187 150.237 37.5466C151.555 36.0746 153.306 35.3481 155.527 35.3481C157.673 35.3481 159.386 36.0554 160.685 37.5084C161.928 38.904 162.549 40.7201 162.549 42.9187C162.568 45.2128 161.928 47.0672 160.648 48.5393ZM147.32 38.2349H143.931V45.3084C143.931 47.1437 144.496 48.0422 145.757 48.0422C146.341 48.0422 146.774 48.004 147.15 47.8893L147.225 50.3746C146.585 50.6231 145.738 50.7378 144.703 50.7378C143.423 50.7378 142.387 50.3554 141.672 49.5525C140.938 48.7687 140.561 47.4304 140.561 45.5569V38.2349H138.491V35.5584H140.561V32.9393L143.95 31.9643V35.5584H147.338V38.2349H147.32ZM135.931 48.9599C134.613 50.1643 132.768 50.7569 130.415 50.7569C128.231 50.7569 126.499 50.3363 125.182 49.476L125.935 46.7422C127.347 47.5834 128.909 48.0231 130.603 48.0231C131.827 48.0231 132.768 47.7363 133.465 47.1819C134.142 46.6275 134.481 45.8819 134.481 44.926C134.481 44.104 134.199 43.3966 133.653 42.8231C133.088 42.2496 132.166 41.7334 130.867 41.2363C127.328 39.8981 125.558 37.9481 125.558 35.3672C125.558 33.6849 126.179 32.2893 127.422 31.2187C128.664 30.1481 130.321 29.6128 132.392 29.6128C134.236 29.6128 135.761 29.9378 136.985 30.5878L136.175 33.2643C135.027 32.6334 133.747 32.3275 132.297 32.3275C131.149 32.3275 130.264 32.6143 129.624 33.1687C129.078 33.6849 128.815 34.2966 128.815 35.0231C128.815 35.826 129.116 36.4951 129.737 37.0304C130.283 37.5084 131.262 38.0437 132.674 38.6172C134.425 39.3246 135.686 40.1657 136.514 41.1216C137.324 42.0775 137.738 43.2628 137.738 44.6775C137.719 46.4363 137.117 47.8701 135.931 48.9599ZM117.219 48.8451C116.014 50.1451 114.508 50.7951 112.72 50.7951C110.8 50.7951 109.501 50.0878 108.559 48.6922V56.5878H105.359V40.5099C105.359 38.9231 105.303 37.4701 105.227 35.5584H108.07L108.258 38.0437H108.315C109.406 36.3231 111.044 35.3672 113.228 35.3672C114.941 35.3672 116.39 36.0363 117.539 37.4319C118.687 38.8084 119.271 40.6246 119.271 42.8804C119.233 45.404 118.574 47.3731 117.219 48.8451ZM101.199 48.8451C99.9941 50.1451 98.4881 50.7951 96.6998 50.7951C94.7608 50.7951 93.4807 50.0878 92.5395 48.6922V56.5878H89.3393V40.5099C89.3393 38.9231 89.264 37.4701 89.1887 35.5584H92.0312L92.2195 38.0437H92.276C93.3678 36.3231 95.0055 35.3672 97.208 35.3672C98.9211 35.3672 100.352 36.0363 101.519 37.4319C102.667 38.8084 103.251 40.6246 103.251 42.8804C103.232 45.404 102.554 47.3731 101.199 48.8451ZM83.8801 50.279L81.9976 44.3525H75.409L73.6018 50.279H70.251L76.7455 29.8231H80.774L87.325 50.279H83.8801ZM179.981 37.5849C178.926 37.5849 178.06 38.1393 177.402 39.0187C176.856 39.726 176.536 40.5099 176.441 41.6569H183.181C183.2 40.5099 182.993 39.7451 182.56 39.0378C182.014 38.1393 181.148 37.5849 179.981 37.5849ZM78.6845 32.6907H78.628C78.4209 33.6466 78.1009 34.9275 77.6679 36.629L75.9925 42.0584H81.4141L79.7198 36.629C79.5316 36.0746 79.1739 34.6025 78.6845 32.6907ZM112.155 37.9672C111.345 37.9672 110.63 38.2349 109.99 38.7701C109.331 39.3246 108.898 40.0128 108.71 40.8922C108.616 41.2937 108.559 41.6378 108.559 41.9054V44.3525C108.559 45.4231 108.898 46.3407 109.538 47.0863C110.178 47.8128 111.044 48.1951 112.08 48.1951C113.303 48.1951 114.263 47.7172 114.941 46.7613C115.619 45.8054 115.958 44.5437 115.958 42.976C115.958 41.5422 115.637 40.3569 114.997 39.4201C114.282 38.4643 113.341 37.9672 112.155 37.9672ZM155.414 37.7569C154.115 37.7569 153.136 38.3496 152.459 39.5157C151.875 40.4907 151.593 41.6569 151.593 43.0716C151.593 44.429 151.875 45.5951 152.459 46.5701C153.155 47.7363 154.134 48.329 155.395 48.329C156.619 48.329 157.598 47.7363 158.294 46.5319C158.897 45.5569 159.198 44.3716 159.198 43.0143C159.198 41.6569 158.916 40.4907 158.332 39.5157C157.654 38.3304 156.675 37.7569 155.414 37.7569ZM96.135 37.9672C95.3444 37.9672 94.6102 38.2349 93.9702 38.7701C93.3113 39.3246 92.8972 40.0128 92.6901 40.8922C92.596 41.2937 92.5395 41.6378 92.5395 41.9054V44.3525C92.5395 45.4231 92.8595 46.3407 93.5184 47.0863C94.1584 47.8128 95.0056 48.1951 96.0597 48.1951C97.2833 48.1951 98.2434 47.7172 98.9211 46.7613C99.5988 45.8054 99.9376 44.5437 99.9376 42.976C99.9376 41.5422 99.6176 40.3569 98.9776 39.4201C98.2622 38.4643 97.321 37.9672 96.135 37.9672Z" fill="#393939"/>
<path d="M80.1896 14.1655V23.2273L81.1874 23.2655L81.0744 27.3758H79.6249L79.512 24.7567H73.1869L73.0739 27.3758H71.6244L71.5303 23.2655L72.3586 23.2273C72.7539 22.4817 73.1304 21.717 73.3563 20.8758C73.6763 19.7479 73.8081 18.4479 73.8081 16.9376V14.1655H80.1896ZM75.5776 17.4155C75.5776 18.8685 75.427 20.1685 75.0881 21.2773C74.8811 21.9655 74.5987 22.6538 74.3163 23.1699H78.2884V15.7523H75.5776V17.4155Z" fill="#393939"/>
<path d="M89.6968 20.8758C89.6968 23.6861 87.739 24.9479 85.8189 24.9479C83.6917 24.9479 82.0352 23.4567 82.0352 21.0097C82.0352 18.4861 83.6541 16.9567 85.9319 16.9567C88.1908 16.9376 89.6968 18.5435 89.6968 20.8758ZM84.0118 20.9523C84.0118 22.4244 84.7271 23.5523 85.8942 23.5523C86.9861 23.5523 87.7391 22.4626 87.7391 20.9332C87.7391 19.7288 87.212 18.3714 85.913 18.3714C84.5577 18.3523 84.0118 19.6714 84.0118 20.9523Z" fill="#393939"/>
<path d="M96.812 24.5277C96.4167 24.7189 95.6261 24.9291 94.666 24.9291C92.3129 24.9291 90.7881 23.3997 90.7881 21.0292C90.7881 18.735 92.3317 16.938 94.986 16.938C95.6825 16.938 96.3979 17.0909 96.8308 17.3012L96.492 18.7542C96.1908 18.6203 95.739 18.4483 95.0613 18.4483C93.6118 18.4483 92.7459 19.538 92.7459 20.9336C92.7459 22.5012 93.7436 23.3997 95.0613 23.3997C95.7202 23.3997 96.1908 23.2659 96.5673 23.0939L96.812 24.5277Z" fill="#393939"/>
<path d="M104.041 17.1099V18.601H101.782V24.7569H99.881V18.601H97.6221V17.1099H104.041Z" fill="#393939"/>
<path d="M106.637 17.1094L107.993 21.2198C108.143 21.6977 108.294 22.2712 108.407 22.7109H108.445C108.576 22.2712 108.708 21.6977 108.84 21.2006L110.026 17.1094H112.078L110.195 22.3286C109.16 25.1962 108.463 26.458 107.56 27.2418C106.826 27.9109 106.035 28.1786 105.564 28.2359L105.131 26.5918C105.451 26.5154 105.866 26.3433 106.242 26.0565C106.6 25.8271 107.014 25.3683 107.277 24.8521C107.353 24.7183 107.409 24.6036 107.409 24.508C107.409 24.4315 107.39 24.3168 107.296 24.1256L104.548 17.0903H106.637V17.1094Z" fill="#393939"/>
<path d="M119.834 17.1099V24.776H117.914V18.601H115.071V24.7569H113.17V17.1099H119.834Z" fill="#393939"/>
<path d="M123.751 17.1099V20.0349H126.669V17.1099H128.57V24.776H126.669V21.5452H123.751V24.776H121.85V17.1099H123.751Z" fill="#393939"/>
<path d="M137.755 20.8758C137.755 23.6861 135.798 24.9479 133.878 24.9479C131.75 24.9479 130.094 23.4567 130.094 21.0097C130.094 18.4861 131.713 16.9567 133.99 16.9567C136.249 16.9376 137.755 18.5435 137.755 20.8758ZM132.07 20.9523C132.07 22.4244 132.786 23.5523 133.953 23.5523C135.045 23.5523 135.798 22.4626 135.798 20.9332C135.798 19.7288 135.271 18.3714 133.972 18.3714C132.616 18.3523 132.07 19.6714 132.07 20.9523Z" fill="#393939"/>
<path d="M142.519 17.2058C143.083 17.1102 144.213 17.0146 145.267 17.0146C146.528 17.0146 148.825 17.1867 148.825 18.9455C148.825 19.9205 148.091 20.4749 147.281 20.647V20.6852C148.392 20.8573 149.164 21.4882 149.164 22.5588C149.164 24.6617 146.434 24.872 144.928 24.872C143.987 24.872 142.97 24.8147 142.537 24.7573V17.2058H142.519ZM144.363 23.6102C144.665 23.6485 144.909 23.6485 145.286 23.6485C146.152 23.6485 147.206 23.4191 147.206 22.5205C147.206 21.6602 146.378 21.3735 145.173 21.3735H144.345V23.6102H144.363ZM144.363 20.2073H145.154C146.133 20.2073 146.942 19.9205 146.942 19.1941C146.942 18.5823 146.415 18.2573 145.286 18.2573C144.909 18.2573 144.665 18.2955 144.363 18.3146V20.2073Z" fill="#393939"/>
</svg>
