<svg width="215" height="65" viewBox="0 0 215 65" fill="none" xmlns="http://www.w3.org/2000/svg">
<path d="M13.133 0.5H201.74C206.334 0.5 209.497 1.37424 211.516 3.17833C213.521 4.97041 214.5 7.77491 214.5 11.8912V53.1853C214.5 57.2917 213.521 60.0761 211.518 61.8513C209.499 63.6395 206.335 64.5 201.74 64.5H13.1118C8.52638 64.5 5.40181 63.6439 3.41874 61.8631C1.44892 60.0942 0.5 57.3151 0.5 53.2044V11.8912C0.5 7.70014 0.978528 4.92191 2.69895 3.15425C4.41959 1.38637 7.51245 0.5 13.133 0.5Z" fill="white" stroke="#DBDBDB"/>
<path d="M104.162 37.2596C100.644 37.2596 97.8454 39.9361 97.8454 43.6449C97.8454 47.2008 100.626 50.0302 104.162 50.0302C107.699 50.0302 110.479 47.3537 110.479 43.6449C110.46 39.7831 107.68 37.2596 104.162 37.2596ZM104.162 47.3537C102.252 47.3537 100.644 45.7287 100.644 43.492C100.644 41.2743 102.252 39.6302 104.162 39.6302C106.072 39.6302 107.68 41.1214 107.68 43.492C107.68 45.7096 106.054 47.3537 104.162 47.3537ZM90.5072 37.2596C86.9895 37.2596 84.1904 39.9361 84.1904 43.6449C84.1904 47.2008 86.9706 50.0302 90.5072 50.0302C94.0439 50.0302 96.8241 47.3537 96.8241 43.6449C96.8241 39.7831 94.025 37.2596 90.5072 37.2596ZM90.5072 47.3537C88.597 47.3537 86.9895 45.7287 86.9895 43.492C86.9895 41.2743 88.597 39.6302 90.5072 39.6302C92.4174 39.6302 94.025 41.1214 94.025 43.492C94.025 45.7096 92.4174 47.3537 90.5072 47.3537ZM74.2234 39.1905V41.867H80.5402C80.3889 43.3581 79.8026 44.5434 79.065 45.2699C78.1761 46.1684 76.7198 47.2008 74.2234 47.2008C70.2706 47.2008 67.3202 44.0846 67.3202 40.089C67.3202 36.0934 70.403 32.9773 74.2234 32.9773C76.2849 32.9773 77.8924 33.8758 79.065 34.9081L80.9752 32.9773C79.3676 31.4861 77.3061 30.3008 74.3747 30.3008C69.098 30.3008 64.54 34.7552 64.54 40.089C64.54 45.4228 69.0791 49.8772 74.3747 49.8772C77.3061 49.8772 79.3676 48.9787 81.1265 47.067C82.8854 45.289 83.4717 42.7655 83.4717 40.8346C83.4717 40.242 83.4717 39.6493 83.3204 39.2096L74.2234 39.1905ZM140.834 41.2552C140.248 39.764 138.773 37.2596 135.557 37.2596C132.323 37.2596 129.694 39.7831 129.694 43.6449C129.694 47.2008 132.342 50.0302 135.86 50.0302C138.64 50.0302 140.399 48.2523 141.004 47.2199L138.943 45.7287C138.205 46.7611 137.335 47.5067 135.86 47.5067C134.385 47.5067 133.515 46.914 132.777 45.5758L141.137 42.0199L140.834 41.2552ZM132.323 43.339C132.323 40.9684 134.233 39.6302 135.557 39.6302C136.579 39.6302 137.619 40.2228 137.903 40.9684L132.323 43.339ZM125.42 49.4184H128.219V30.8743H125.439V49.4184H125.42ZM121.032 38.5978C120.295 37.8523 119.122 37.1067 117.666 37.1067C114.583 37.1067 111.652 39.917 111.652 43.492C111.652 47.067 114.432 49.7243 117.666 49.7243C119.141 49.7243 120.314 48.9787 120.9 48.2331H121.051V49.1317C121.051 51.5023 119.727 52.8405 117.685 52.8405C116.077 52.8405 114.905 51.6552 114.602 50.6228L112.257 51.6552C112.994 53.2802 114.753 55.364 117.836 55.364C121.07 55.364 123.699 53.4331 123.699 48.8449V37.5655H121.051L121.032 38.5978ZM117.798 47.3537C115.888 47.3537 114.281 45.7287 114.281 43.492C114.281 41.2743 115.888 39.6302 117.798 39.6302C119.709 39.6302 121.165 41.2552 121.165 43.492C121.165 45.7096 119.709 47.3537 117.798 47.3537ZM153.6 30.8743H147V49.4184H149.78V42.4405H153.6C156.683 42.4405 159.614 40.2228 159.614 36.6478C159.614 33.0728 156.683 30.8743 153.6 30.8743ZM153.751 39.7831H149.78V33.3978H153.751C155.813 33.3978 156.986 35.1758 156.986 36.514C156.815 38.1581 155.643 39.7831 153.751 39.7831ZM170.622 37.1067C168.56 37.1067 166.518 38.0052 165.78 39.917L168.276 40.9493C168.863 39.917 169.752 39.6111 170.773 39.6111C172.248 39.6111 173.553 40.5096 173.704 41.9817V42.1346C173.269 41.8287 172.097 41.389 170.924 41.389C168.276 41.389 165.648 42.8802 165.648 45.5375C165.648 48.0611 167.841 49.6861 170.187 49.6861C172.097 49.6861 172.967 48.7875 173.704 47.9081H173.856V49.3993H176.503V42.2875C176.182 39.0375 173.704 37.1067 170.622 37.1067ZM170.319 47.3537C169.43 47.3537 168.125 46.914 168.125 45.7287C168.125 44.2375 169.733 43.7978 171.057 43.7978C172.229 43.7978 172.815 44.1037 173.553 44.3905C173.25 46.1493 171.794 47.3537 170.319 47.3537ZM185.733 37.5655L182.65 45.5758H182.499L179.265 37.5655H176.333L181.175 48.8449L178.395 55.0581H181.175L188.664 37.5655H185.733ZM161.071 49.4184H163.851V30.8743H161.071V49.4184Z" fill="#393939"/>
<path d="M72.3506 22.5957C71.5941 23.4751 70.7052 23.8957 69.6272 23.8957C68.6627 23.8957 67.8494 23.5707 67.1875 22.9016C66.5255 22.2516 66.204 21.3722 66.204 20.3207C66.204 19.2501 66.5444 18.3898 67.1875 17.7398C67.8494 17.0898 68.6627 16.7457 69.6272 16.7457C70.6674 16.7457 71.4617 17.109 72.0669 17.8737L72.1993 18.0457L73.3152 16.956L73.1828 16.8222C72.275 15.7516 71.0646 15.2163 69.6083 15.2163C68.1898 15.2163 66.9794 15.7134 66.0149 16.6884C65.0503 17.6634 64.5586 18.8869 64.5586 20.3398C64.5586 21.7928 65.0503 23.0163 66.0149 23.9913C66.9794 24.9663 68.1898 25.4633 69.6083 25.4633C70.3837 25.4633 71.1213 25.3104 71.7833 24.9854C72.4452 24.6795 73.0126 24.2398 73.4476 23.7045L73.5611 23.5707L72.4641 22.4619L72.3506 22.5957Z" fill="#393939"/>
<path d="M85.4394 15.4844L81.9594 24.8138L78.4606 19.7476L81.8838 15.752V15.4844H79.9925L76.0208 20.0153V15.4844H74.5078V25.2344H76.0208V22.3858L77.288 20.952L80.2951 25.2344H81.7703H82.054H83.5103L84.4181 22.7491H88.0682L88.976 25.2344H90.716L87.0659 15.4844H85.4394ZM87.5198 21.2197H84.9665L86.2526 17.6447L87.5198 21.2197Z" fill="#393939"/>
<path d="M96.0683 19.2314C95.6901 19.7858 95.0092 20.0726 94.2149 20.0726C93.6664 20.0726 93.2125 19.9197 92.9288 19.6329C92.6262 19.3461 92.4749 18.9256 92.4749 18.3711V15.4844H90.9619V18.6006C90.9619 19.5182 91.2456 20.2447 91.8508 20.7991C92.456 21.3344 93.1936 21.602 94.0825 21.602C94.8958 21.602 95.5766 21.3726 96.1251 20.8947L96.0873 21.2006V25.2344H97.7894V15.4844H96.0873V19.2314H96.0683Z" fill="#393939"/>
<path d="M100.418 22.3667V21.1432V15.4844H98.9053V25.2344H100.456L104.957 17.9697V19.1741V25.2344H106.47V15.4844H104.73L100.418 22.3667Z" fill="#393939"/>
<path d="M113.355 20.1491C113.638 19.977 113.865 19.7476 114.035 19.48C114.281 19.0976 114.414 18.677 114.414 18.18C114.414 17.3961 114.13 16.7461 113.544 16.23C112.976 15.7138 112.295 15.4844 111.52 15.4844H107.983V25.2344H111.728C112.541 25.2344 113.241 24.9667 113.846 24.4314C114.452 23.8961 114.754 23.1888 114.754 22.3667C114.754 21.8123 114.584 21.3344 114.262 20.9138C114.017 20.5888 113.714 20.3211 113.355 20.1491ZM112.485 19.0976C112.239 19.3653 111.936 19.4991 111.539 19.4991H109.496V17.0138H111.596C111.974 17.0138 112.277 17.1094 112.504 17.377C112.73 17.6447 112.844 17.9123 112.844 18.2373C112.844 18.5432 112.73 18.83 112.485 19.0976ZM112.749 23.2844C112.504 23.5711 112.182 23.705 111.766 23.705H109.496V21.0285H111.728C112.163 21.0285 112.485 21.1432 112.749 21.43C113.014 21.7167 113.147 22.0035 113.147 22.3476C113.128 22.6917 113.014 22.9785 112.749 23.2844Z" fill="#393939"/>
<path d="M118.497 15.4844L114.847 25.2344H116.587L117.494 22.7491H121.145L122.052 25.2344H123.792L120.142 15.4844H118.497ZM120.596 21.2197H118.043L119.329 17.6447L120.596 21.2197Z" fill="#393939"/>
<path d="M128.162 15.1025C128.653 15.1025 129.051 14.9304 129.41 14.5672C129.769 14.2039 129.921 13.7642 129.921 13.248V12.9995H128.597V13.248C128.597 13.401 128.578 13.5348 128.483 13.6495C128.389 13.7642 128.294 13.8025 128.143 13.8025C127.973 13.8025 127.878 13.7451 127.783 13.6495C127.689 13.5348 127.651 13.401 127.651 13.248V12.9995H126.327V13.248C126.327 13.7642 126.497 14.2039 126.876 14.5672C127.254 14.9304 127.67 15.1025 128.162 15.1025Z" fill="#393939"/>
<path d="M125.931 22.3667L125.95 21.1432V15.4844H124.437V25.2344H125.95L130.489 17.9697V19.1741V25.2344H132.002V15.4844H130.224L125.931 22.3667Z" fill="#393939"/>
<path d="M132.758 17.0138H135.406V25.2344H137.108V17.0138H139.566V15.4844H132.758V17.0138Z" fill="#393939"/>
<path d="M140.512 25.2344H146.375V23.705H142.214V21.0285H145.996V19.4991H142.214V17.0138H146.375V15.4844H140.512V25.2344Z" fill="#393939"/>
<path d="M156.796 20.8947C156.55 20.5697 156.248 20.3211 155.907 20.1491C156.191 19.977 156.418 19.7476 156.588 19.48C156.834 19.0976 156.966 18.677 156.966 18.18C156.966 17.3961 156.683 16.7461 156.096 16.23C155.529 15.7138 154.848 15.4844 154.073 15.4844H150.536V25.2344H154.262C155.075 25.2344 155.775 24.9667 156.38 24.4314C156.985 23.8961 157.288 23.1888 157.288 22.3667C157.269 21.8123 157.099 21.3153 156.796 20.8947ZM155.018 19.0976C154.773 19.3653 154.47 19.4991 154.073 19.4991H152.049V17.0138H154.13C154.508 17.0138 154.81 17.1094 155.037 17.377C155.264 17.6447 155.378 17.9123 155.378 18.2373C155.378 18.5432 155.264 18.83 155.018 19.0976ZM155.283 23.2844C155.037 23.5711 154.716 23.705 154.3 23.705H152.049V21.0285H154.262C154.697 21.0285 155.018 21.1432 155.283 21.43C155.548 21.7167 155.68 22.0035 155.68 22.3476C155.661 22.6917 155.548 22.9785 155.283 23.2844Z" fill="#393939"/>
<path fill-rule="evenodd" clip-rule="evenodd" d="M50.2407 26.7836L27.2617 13.4204L45.4179 31.6586L50.2407 26.7836Z" fill="#393939"/>
<path fill-rule="evenodd" clip-rule="evenodd" d="M25.1442 13.5537C25.0496 13.7067 24.9551 13.8978 24.9551 14.1081V51.9228C24.9551 52.0375 25.0118 52.1522 25.0496 52.267L44.265 32.8052L25.1442 13.5537Z" fill="#393939"/>
<path fill-rule="evenodd" clip-rule="evenodd" d="M45.4191 33.915L26.582 52.9945C26.6388 52.9753 26.6955 52.9562 26.7522 52.918L50.5634 39.0768L45.4191 33.915Z" fill="#393939"/>
<path fill-rule="evenodd" clip-rule="evenodd" d="M59.2634 32.0226L51.6605 27.6064L46.5352 32.7873L51.9631 38.255L59.2634 34.0109C60.0199 33.5712 60.0199 32.4623 59.2634 32.0226Z" fill="#393939"/>
</svg>
