<svg width="795" height="450" viewBox="0 0 795 450" fill="none" xmlns="http://www.w3.org/2000/svg">
<g clip-path="url(#clip0_801_1961)">
<rect width="795" height="450" rx="24" fill="#453456"/>
<path d="M392.5 184.76C220.1 22.7601 120.5 -16.5 -18 13.2601L-114.5 245C3 184.76 223.5 147.5 392.5 297C566.797 451.185 696 515 813 515L871 236C785 297 564.9 346.76 392.5 184.76Z" fill="#523E66"/>
<path d="M456.371 390.556H338.008C328.054 390.556 320 382.502 320 372.548V76.0078C320 66.0537 328.054 58 338.008 58H456.371C466.325 58 474.378 66.0537 474.378 76.0078V372.639C474.378 382.502 466.325 390.556 456.371 390.556Z" fill="#463354"/>
<path d="M459.13 48H335.066C321.221 48 310 59.2209 310 73.0661V376.031C310 389.877 321.221 401.097 335.066 401.097H459.13C472.975 401.097 484.196 389.877 484.196 376.031V73.0661C484.196 59.2209 472.975 48 459.13 48ZM474.242 372.864C474.242 382.818 466.188 390.872 456.234 390.872H337.871C327.917 390.872 319.864 382.818 319.864 372.864V76.3238C319.864 66.3698 327.917 58.316 337.871 58.316H351.264C353.164 58.497 354.612 60.1258 354.612 62.1167C354.612 62.2071 354.612 62.2072 354.612 62.2976C354.612 62.3881 354.612 62.4786 354.612 62.5691C354.612 62.7501 354.612 62.8406 354.612 63.0216C354.612 66.8222 357.689 69.8989 361.399 69.8989H433.702C433.792 69.8989 433.883 69.8989 433.883 69.8989C437.593 69.7179 440.579 66.7317 440.579 63.0216C440.579 62.9311 440.579 62.6596 440.579 62.5691C440.579 62.4786 440.579 62.3881 440.579 62.2071C440.67 60.7593 442.389 58.859 443.656 58.316H456.234C466.188 58.316 474.242 66.3698 474.242 76.3238V372.864Z" fill="#8764AB"/>
<path d="M722.5 252L724.02 270.586L744 272L724.02 273.414L722.5 292L720.98 273.414L701 272L720.98 270.586L722.5 252Z" fill="#E2E2E2"/>
<path d="M624.5 56L626.02 74.5858L646 76L626.02 77.4142L624.5 96L622.98 77.4142L603 76L622.98 74.5858L624.5 56Z" fill="#E2E2E2"/>
<path d="M147.5 111L148.455 122.616L161 123.5L148.455 124.384L147.5 136L146.545 124.384L134 123.5L146.545 122.616L147.5 111Z" fill="#E2E2E2"/>
<path d="M527.5 373L528.455 384.616L541 385.5L528.455 386.384L527.5 398L526.545 386.384L514 385.5L526.545 384.616L527.5 373Z" fill="#E2E2E2"/>
<path d="M743.5 237L744.313 246.758L755 247.5L744.313 248.242L743.5 258L742.687 248.242L732 247.5L742.687 246.758L743.5 237Z" fill="#E2E2E2"/>
<path d="M202.5 272L203.03 278.505L210 279L203.03 279.495L202.5 286L201.97 279.495L195 279L201.97 278.505L202.5 272Z" fill="#E2E2E2"/>
<path d="M548.5 398L549.03 404.505L556 405L549.03 405.495L548.5 412L547.97 405.495L541 405L547.97 404.505L548.5 398Z" fill="#E2E2E2"/>
<path d="M675.062 371.437C674.404 374.728 673.104 377.858 671.237 380.646C669.369 383.435 666.97 385.829 664.176 387.689C661.383 389.55 658.25 390.842 654.957 391.492C651.664 392.141 648.275 392.135 644.984 391.473L617.688 385.999L587.863 397.152L598.61 382.213L563.852 375.243C560.507 374.64 557.315 373.377 554.464 371.526C551.613 369.675 549.16 367.274 547.248 364.464C545.336 361.653 544.004 358.489 543.33 355.158C542.655 351.826 542.652 348.394 543.321 345.061C543.989 341.728 545.315 338.562 547.222 335.748C549.129 332.934 551.578 330.529 554.426 328.673C557.274 326.817 560.463 325.548 563.807 324.94C567.151 324.331 570.583 324.396 573.902 325.13L655.027 341.401C661.664 342.732 667.502 346.642 671.258 352.274C675.014 357.905 676.382 364.797 675.062 371.437Z" fill="url(#paint0_linear_801_1961)"/>
<path d="M578.976 352.166C578.58 354.149 577.605 355.97 576.174 357.399C574.742 358.827 572.92 359.799 570.936 360.192C568.952 360.584 566.897 360.379 565.029 359.603C563.162 358.826 561.567 357.514 560.447 355.83C559.326 354.147 558.729 352.169 558.733 350.147C558.737 348.125 559.34 346.149 560.467 344.47C561.594 342.791 563.194 341.484 565.064 340.715C566.934 339.945 568.99 339.748 570.973 340.147C572.292 340.401 573.548 340.915 574.667 341.659C575.786 342.403 576.746 343.362 577.491 344.481C578.236 345.599 578.751 346.855 579.006 348.174C579.26 349.493 579.25 350.85 578.976 352.166Z" fill="url(#paint1_linear_801_1961)"/>
<path d="M568.714 351.413C570.679 351.807 572.592 350.533 572.986 348.568C573.381 346.602 572.107 344.689 570.141 344.295C568.176 343.901 566.262 345.175 565.868 347.14C565.474 349.106 566.748 351.019 568.714 351.413Z" fill="url(#paint2_linear_801_1961)"/>
<path d="M575.075 358.339C573.926 359.199 572.609 359.807 571.209 360.124C569.809 360.44 568.358 360.458 566.951 360.175C565.543 359.893 564.212 359.317 563.042 358.486C561.872 357.654 560.891 356.585 560.162 355.349C561.254 354.345 562.568 353.614 563.996 353.215C565.423 352.816 566.926 352.76 568.379 353.051C569.833 353.343 571.198 353.974 572.361 354.893C573.525 355.812 574.455 356.993 575.075 358.339Z" fill="url(#paint3_linear_801_1961)"/>
<path d="M645.247 358.889L589.282 347.664C587.728 347.353 586.215 348.36 585.903 349.914C585.592 351.468 586.599 352.981 588.153 353.292L644.119 364.517C645.673 364.828 647.185 363.821 647.497 362.267C647.809 360.713 646.801 359.2 645.247 358.889Z" fill="#B3A9D4"/>
<path d="M643.34 368.399L587.375 357.175C585.82 356.864 584.308 357.871 583.996 359.425C583.684 360.979 584.692 362.491 586.246 362.803L642.211 374.027C643.765 374.339 645.278 373.332 645.59 371.778C645.901 370.224 644.894 368.711 643.34 368.399Z" fill="#B3A9D4"/>
<path d="M692.062 115.05L724.023 88L706.923 143.22L692.062 115.05Z" fill="#E8D4E9"/>
<path d="M658.962 105.96L651.152 112.37L662.722 122.02L686.302 108.82L658.962 105.96Z" fill="#D1BFDE"/>
<path d="M662.723 122.02L724.023 88L673.533 130.46L662.723 122.02Z" fill="#E5697C"/>
<path d="M673.532 130.46L669.412 146.5L662.692 122.01" fill="#E5697C"/>
<path d="M669.383 146.5L682.233 130.34L677.463 128.17L673.533 130.43L669.383 146.5Z" fill="#763E71"/>
<path d="M706.922 143.22L699.622 148.91L673.532 130.46L692.062 115.05L706.922 143.22Z" fill="#D1BFDE"/>
<path d="M724.022 88L658.652 106L684.212 110.14L724.022 88Z" fill="#E8D4E9"/>
<path d="M666.242 148.7C666.242 148.7 664.802 149.82 662.242 151.7" stroke="#D1BFDE" stroke-width="1.5" stroke-miterlimit="10"/>
<path d="M653.952 157.69C636.022 170.25 602.422 191.63 580.072 192.69C548.352 194.15 535.252 185.69 530.012 170.69C524.772 155.69 528.842 130.37 553.292 124.55C577.742 118.73 597.542 130.66 600.742 152.2C603.942 173.74 582.112 195.28 565.812 207.51C552.282 217.66 544.572 237.63 546.332 254.45" stroke="#D1BFDE" stroke-width="1.5" stroke-miterlimit="10" stroke-dasharray="10.23 10.23"/>
<path d="M547.172 259.49C547.55 261.112 548.041 262.706 548.642 264.26" stroke="#D1BFDE" stroke-width="1.5" stroke-miterlimit="10"/>
<path d="M296.293 308.736L217.306 340.567L241.269 400.031L320.256 368.199L296.293 308.736Z" fill="#BAAAD2"/>
<path d="M325.641 314.573L240.87 322.704L246.991 386.521L331.762 378.39L325.641 314.573Z" fill="#E0D5EA"/>
<path d="M322.129 319.842L245.321 327.21L250.592 382.158L327.399 374.79L322.129 319.842Z" fill="url(#paint4_linear_801_1961)"/>
<path d="M326.958 370.191L296.555 350.876L262.278 381.036L327.399 374.79L326.958 370.191Z" fill="#D6C7E3"/>
<path d="M250.15 377.559L280.379 352.428L325.049 375.016L250.591 382.158L250.15 377.559Z" fill="#DCCDEA"/>
<path d="M265.994 356.208C272.069 355.626 276.522 350.229 275.939 344.154C275.356 338.079 269.959 333.627 263.884 334.209C257.809 334.792 253.357 340.189 253.94 346.264C254.523 352.339 259.92 356.791 265.994 356.208Z" fill="#CCBBDC"/>
<path d="M255.979 57.5484C256.547 61.2203 256.013 64.9781 254.445 68.3465C252.877 71.7148 250.345 74.5423 247.17 76.4712C243.994 78.4001 240.318 79.3438 236.605 79.1827C232.893 79.0216 229.313 77.763 226.316 75.5662C223.32 73.3694 221.042 70.3332 219.772 66.8416C218.501 63.3501 218.295 59.5601 219.179 55.9513C220.063 52.3426 221.998 49.0771 224.738 46.5682C227.479 44.0593 230.902 42.4197 234.575 41.8568C237.013 41.4632 239.505 41.5581 241.906 42.1362C244.307 42.7142 246.569 43.7638 248.56 45.2239C250.552 46.684 252.233 48.5255 253.507 50.6413C254.781 52.7571 255.621 55.105 255.979 57.5484Z" fill="url(#paint5_linear_801_1961)"/>
<path d="M226.952 59.604C228.199 59.4119 229.055 58.2451 228.863 56.9979C228.67 55.7506 227.504 54.8952 226.256 55.0873C225.009 55.2794 224.154 56.4462 224.346 57.6934C224.538 58.9407 225.705 59.7961 226.952 59.604Z" fill="white"/>
<path d="M247.171 56.4905C248.418 56.2984 249.273 55.1316 249.081 53.8843C248.889 52.6371 247.722 51.7817 246.475 51.9738C245.228 52.1658 244.373 53.3326 244.565 54.5799C244.757 55.8272 245.923 56.6826 247.171 56.4905Z" fill="white"/>
<path d="M250.281 61.9007C250.129 61.9192 249.987 61.9891 249.88 62.0989C249.772 62.2087 249.705 62.3518 249.69 62.5047C249.365 65.1639 248.18 67.6442 246.316 69.568C244.451 71.4917 242.009 72.7535 239.361 73.1612C236.713 73.569 234.005 73.1004 231.648 71.8268C229.291 70.5532 227.415 68.5443 226.305 66.106C226.244 65.9648 226.138 65.8484 226.002 65.776C225.867 65.7036 225.71 65.6796 225.559 65.7077C225.452 65.7195 225.349 65.7569 225.259 65.8168C225.169 65.8766 225.095 65.9572 225.042 66.0517C224.99 66.1462 224.961 66.2519 224.958 66.3599C224.954 66.4679 224.977 66.5751 225.024 66.6725C226.256 69.379 228.339 71.6088 230.955 73.0224C233.571 74.436 236.578 74.9561 239.517 74.5035C242.456 74.0509 245.166 72.6504 247.236 70.5151C249.306 68.3799 250.621 65.6268 250.982 62.6751C250.997 62.5681 250.987 62.459 250.951 62.357C250.916 62.2549 250.856 62.1628 250.778 62.0885C250.699 62.0141 250.604 61.9597 250.5 61.9297C250.396 61.8997 250.287 61.895 250.181 61.9161L250.281 61.9007Z" fill="white"/>
<path d="M243.324 206.76C243.004 208.664 240.945 209.954 238.488 209.944C238.462 210.038 238.446 210.135 238.44 210.232C238.734 210.574 238.952 210.974 239.079 211.407C239.207 211.839 239.24 212.294 239.178 212.741C239.031 213.523 238.587 214.217 237.939 214.679C237.398 215.254 236.385 215.659 234.557 215.673C229.616 215.714 211.526 213.16 209.194 210.646C207.02 208.315 214.579 186.429 214.579 186.429C214.579 186.429 216.955 181.146 220.382 178.712C223.809 176.278 226.862 174.406 228.522 168.493C230.182 162.58 233.89 162.973 234.789 166.142C235.687 169.31 236.319 174.014 231.789 180.226C227.258 186.438 234.362 185.658 240.315 186.593C240.854 186.673 241.382 186.814 241.889 187.013C242.634 187.301 243.301 187.759 243.835 188.352C245.852 190.59 245.187 194.154 243.904 194.942C243.725 195.02 243.575 195.152 243.475 195.32C243.375 195.487 243.329 195.681 243.344 195.876C244.006 196.294 244.528 196.9 244.844 197.617C245.16 198.334 245.256 199.128 245.118 199.899C244.981 200.67 244.617 201.383 244.072 201.946C243.528 202.509 242.828 202.898 242.062 203.061C241.947 203.105 241.828 203.14 241.708 203.166L241.945 203.371C242.448 203.768 242.839 204.29 243.081 204.884C243.322 205.478 243.406 206.124 243.324 206.76Z" fill="#E8D4E9"/>
<path d="M211.464 183.586L203.522 182.252C201.429 181.9 199.446 183.312 199.094 185.405L195.688 205.679C195.336 207.773 196.748 209.755 198.841 210.107L206.783 211.441C208.876 211.793 210.859 210.381 211.211 208.288L214.618 188.014C214.969 185.92 213.557 183.938 211.464 183.586Z" fill="#E83E4C"/>
<path d="M213.17 197.408C213.122 197.508 213.083 197.612 213.052 197.718L212.815 197.513C212.936 197.487 213.054 197.452 213.17 197.408Z" fill="#D45054"/>
<path d="M214.95 182.659C214.415 182.066 213.749 181.608 213.004 181.32C213.767 181.571 214.443 182.035 214.95 182.659Z" fill="#D45054"/>
</g>
<defs>
<linearGradient id="paint0_linear_801_1961" x1="542.187" y1="353.335" x2="673.414" y2="379.653" gradientUnits="userSpaceOnUse">
<stop stop-color="#E1D1E8"/>
<stop offset="1" stop-color="#CABADC"/>
</linearGradient>
<linearGradient id="paint1_linear_801_1961" x1="558.944" y1="348.148" x2="578.976" y2="352.166" gradientUnits="userSpaceOnUse">
<stop stop-color="#E83B7B"/>
<stop offset="0.99" stop-color="#6D4A98"/>
</linearGradient>
<linearGradient id="paint2_linear_801_1961" x1="1343.23" y1="671.13" x2="1394.91" y2="681.494" gradientUnits="userSpaceOnUse">
<stop stop-color="#E1D1E8"/>
<stop offset="1" stop-color="#CABADC"/>
</linearGradient>
<linearGradient id="paint3_linear_801_1961" x1="10751.4" y1="2856.42" x2="10978.3" y2="2901.91" gradientUnits="userSpaceOnUse">
<stop stop-color="#E1D1E8"/>
<stop offset="1" stop-color="#CABADC"/>
</linearGradient>
<linearGradient id="paint4_linear_801_1961" x1="288.701" y1="375.408" x2="283.898" y2="325.328" gradientUnits="userSpaceOnUse">
<stop offset="0.43" stop-color="#CFC0DF"/>
<stop offset="0.57" stop-color="#CDBCDC"/>
<stop offset="0.71" stop-color="#C7B1D4"/>
<stop offset="0.84" stop-color="#BD9DC7"/>
<stop offset="0.97" stop-color="#B082B5"/>
<stop offset="1" stop-color="#AC7BB0"/>
</linearGradient>
<linearGradient id="paint5_linear_801_1961" x1="218.71" y1="63.0279" x2="256.127" y2="57.2658" gradientUnits="userSpaceOnUse">
<stop stop-color="#C74F5F"/>
<stop offset="1" stop-color="#AC6FF0"/>
</linearGradient>
<clipPath id="clip0_801_1961">
<rect width="795" height="450" rx="24" fill="white"/>
</clipPath>
</defs>
</svg>
