<svg width="379" height="295" viewBox="0 0 379 295" fill="none" xmlns="http://www.w3.org/2000/svg">
<path opacity="0.1" d="M82.8638 70.033L113.806 26.892H265.762L296.542 69.8706C261.671 60.9002 225.782 56.5303 189.784 56.8714C153.704 56.6643 117.755 61.2262 82.8638 70.4393V70.033ZM342.631 88.1506L279.451 0H100.036L29.2417 98.7937L43.0927 115.774L62.7758 140.147C78.3554 148.376 94.9774 154.444 112.186 158.184L67.4738 103.1C106.682 89.0059 148.145 82.2856 189.784 83.276C231.395 82.2919 272.831 89.0122 312.013 103.1L241.948 188.813L218.296 217.736L189.865 252.509L161.434 217.736L137.701 188.894C125.146 187.351 113.401 185.319 102.952 182.963L96.7958 181.338C52.8937 170.614 27.6217 152.659 26.8927 138.116L7.12871 113.743C2.43389 120.815 -0.048178 129.132 0.000708486 137.629C0.000708486 177.52 56.1337 203.518 123.364 213.755L189.703 295L256.123 213.755L282.61 181.257L336.394 115.449C347.005 122.842 352.594 130.479 352.594 137.385C352.594 144.291 346.033 152.984 333.883 160.784L298 204.574C345.061 191.25 379 168.583 379 137.385C379 117.236 364.825 100.662 342.145 87.9069" fill="#BDBDBD"/>
</svg>
