<svg width="192" height="37" viewBox="0 0 192 37" fill="none" xmlns="http://www.w3.org/2000/svg">
<g clip-path="url(#clip0)">
<path d="M134.28 19.6201H128.16L134.28 11.6201V19.6201ZM138.9 6.22011H133.77L123.14 20.3101V23.6301H134.28V28.8601H138.9V23.6301H142.31V19.6301H138.9V6.22011ZM168.6 7.47011C168 6.88004 167.271 6.4383 166.47 6.18011C165.639 5.90157 164.767 5.76302 163.89 5.77011C162.823 5.74096 161.76 5.92296 160.763 6.30564C159.766 6.68833 158.854 7.26417 158.08 8.00011C157.459 7.29058 156.691 6.72422 155.83 6.34011C155.03 5.97228 154.161 5.77802 153.28 5.77011C152.505 5.7712 151.738 5.93471 151.03 6.25011C150.319 6.55431 149.668 6.98456 149.11 7.52011V6.22011H144.77V23.6701H149.11V11.0001C149.575 10.5562 150.104 10.1853 150.68 9.90011C151.231 9.65852 151.828 9.53912 152.43 9.55011C152.841 9.55126 153.247 9.64122 153.62 9.81382C153.992 9.98642 154.323 10.2376 154.59 10.5501C155.231 11.3368 155.549 12.3377 155.48 13.3501V23.6701H159.83V13.2601C159.84 12.4553 159.75 11.6524 159.56 10.8701C160.071 10.4347 160.658 10.0958 161.29 9.87011C161.897 9.65714 162.537 9.54893 163.18 9.55011C163.595 9.55153 164.005 9.64146 164.383 9.8139C164.761 9.98634 165.097 10.2373 165.37 10.5501C166.011 11.3368 166.329 12.3377 166.26 13.3501V23.6701H170.61V13.0001C170.635 11.8754 170.448 10.7561 170.06 9.70011C169.744 8.84887 169.249 8.07496 168.61 7.43011L168.6 7.47011ZM77.8301 13.2201C78.1432 12.1645 78.7755 11.2318 79.6401 10.5501C80.4747 9.89332 81.5082 9.54059 82.5701 9.55011C83.6551 9.53021 84.7141 9.8832 85.5701 10.5501C86.4466 11.2247 87.0872 12.1593 87.4001 13.2201H77.8301ZM89.1201 8.33011C88.2463 7.52156 87.2288 6.8839 86.1201 6.45011C84.9982 5.99846 83.7996 5.76757 82.5901 5.77011C81.357 5.7644 80.1356 6.00936 79.0001 6.49011C77.8825 6.96089 76.8645 7.63958 76.0001 8.49011C75.138 9.33983 74.4549 10.3537 73.9912 11.4718C73.5274 12.5899 73.2925 13.7897 73.3001 15.0001C73.2883 16.2092 73.5266 17.4076 74.0001 18.5201C74.4722 19.6133 75.1513 20.6049 76.0001 21.4401C76.8668 22.2879 77.8843 22.9662 79.0001 23.4401C80.1625 23.9248 81.4108 24.1697 82.6701 24.1601C83.9155 24.1701 85.1544 23.9811 86.3401 23.6001C87.6207 23.1635 88.8202 22.5181 89.8901 21.6901L87.1001 18.9001C86.5116 19.3937 85.8321 19.7674 85.1001 20.0001C84.3417 20.2669 83.5441 20.4054 82.7401 20.4101C82.1478 20.4132 81.5594 20.3152 81.0001 20.1201C80.4805 19.941 79.994 19.6775 79.5601 19.3401C79.1403 19.009 78.7787 18.6102 78.4901 18.1601C78.2013 17.7156 77.9726 17.2347 77.8101 16.7301H91.8101C91.8101 16.4101 91.8801 16.0901 91.9101 15.7901C91.9401 15.4901 91.9601 15.2001 91.9601 14.9201C91.9739 13.6869 91.7312 12.4643 91.2475 11.3299C90.7637 10.1954 90.0495 9.17392 89.1501 8.33011H89.1201ZM177.84 13.2201C178.153 12.1645 178.785 11.2318 179.65 10.5501C180.485 9.89332 181.518 9.54059 182.58 9.55011C183.665 9.53021 184.724 9.8832 185.58 10.5501C186.457 11.2247 187.097 12.1593 187.41 13.2201H177.84ZM191.18 11.2201C190.7 10.1276 190.003 9.1443 189.13 8.33011C188.255 7.5238 187.238 6.8864 186.13 6.45011C185.008 5.99918 183.81 5.76832 182.6 5.77011C181.357 5.76031 180.125 6.00535 178.98 6.49011C177.863 6.96089 176.845 7.63958 175.98 8.49011C175.118 9.33983 174.435 10.3537 173.971 11.4718C173.507 12.5899 173.272 13.7897 173.28 15.0001C173.271 16.2281 173.52 17.4443 174.01 18.5701C174.482 19.6633 175.161 20.6549 176.01 21.4901C176.877 22.3379 177.894 23.0162 179.01 23.4901C180.172 23.9748 181.421 24.2197 182.68 24.2101C183.925 24.2201 185.164 24.0311 186.35 23.6501C187.627 23.2132 188.824 22.5678 189.89 21.7401L187.15 18.9901C186.562 19.4837 185.882 19.8574 185.15 20.0901C184.392 20.3569 183.594 20.4954 182.79 20.5001C182.191 20.5055 181.596 20.4074 181.03 20.2101C180.511 20.031 180.024 19.7675 179.59 19.4301C179.17 19.099 178.809 18.7002 178.52 18.2501C178.231 17.8056 178.003 17.3247 177.84 16.8201H191.79C191.79 16.5001 191.86 16.1801 191.89 15.8801C191.92 15.5801 191.89 15.2901 191.89 15.0101C191.908 13.7362 191.649 12.4737 191.13 11.3101L191.18 11.2201ZM118.49 7.47011C117.89 6.88004 117.161 6.4383 116.36 6.18011C115.529 5.90157 114.657 5.76302 113.78 5.77011C111.634 5.71926 109.556 6.52118 108 8.00011C107.379 7.29058 106.611 6.72422 105.75 6.34011C104.95 5.97314 104.081 5.77892 103.2 5.77011C102.425 5.7712 101.658 5.93471 100.95 6.25011C100.228 6.55112 99.5673 6.98152 99.0001 7.52011V6.22011H94.6501V23.6701H99.0001V11.0001C99.4649 10.5562 99.9942 10.1853 100.57 9.90011C101.121 9.65852 101.718 9.53912 102.32 9.55011C102.731 9.55126 103.137 9.64122 103.51 9.81382C103.882 9.98642 104.213 10.2376 104.48 10.5501C105.121 11.3368 105.439 12.3377 105.37 13.3501V23.6701H109.72V13.2601C109.73 12.4553 109.64 11.6524 109.45 10.8701C109.961 10.4347 110.548 10.0958 111.18 9.87011C111.787 9.65714 112.427 9.54893 113.07 9.55011C113.485 9.55153 113.895 9.64146 114.273 9.8139C114.651 9.98634 114.987 10.2373 115.26 10.5501C115.901 11.3368 116.219 12.3377 116.15 13.3501V23.6701H120.5V13.0001C120.525 11.8754 120.338 10.7561 119.95 9.70011C119.63 8.85077 119.136 8.0776 118.5 7.43011L118.49 7.47011ZM66.3001 12.5601C66.2993 12.9891 66.2144 13.4138 66.0501 13.8101C65.8859 14.1843 65.6517 14.5237 65.3601 14.8101C65.0727 15.1004 64.7335 15.3344 64.3601 15.5001C63.971 15.6771 63.5476 15.7659 63.1201 15.7601C62.6958 15.7668 62.2754 15.6779 61.8901 15.5001C61.5171 15.3338 61.178 15.0998 60.8901 14.8101C60.5986 14.5237 60.3644 14.1843 60.2001 13.8101C60.0311 13.4153 59.946 12.9896 59.9501 12.5601C59.9459 12.1338 60.031 11.7114 60.2001 11.3201C60.3674 10.9476 60.6013 10.6087 60.8901 10.3201C61.178 10.0304 61.5171 9.79644 61.8901 9.63011C62.2772 9.45755 62.6964 9.36893 63.1201 9.37011C63.5471 9.36932 63.9694 9.45789 64.3601 9.63011C64.7335 9.79583 65.0727 10.0298 65.3601 10.3201C65.649 10.6087 65.8828 10.9476 66.0501 11.3201C66.2144 11.7129 66.2993 12.1343 66.3001 12.5601ZM63.3001 24.6401C64.2402 24.6067 65.1769 24.7702 66.0501 25.1201C66.366 25.2333 66.6382 25.4428 66.8284 25.7192C67.0187 25.9955 67.1172 26.3247 67.1101 26.6601C67.1195 26.9892 67.029 27.3135 66.8505 27.5902C66.672 27.8668 66.4139 28.083 66.1101 28.2101C64.3104 28.8798 62.3298 28.8798 60.5301 28.2101C60.2147 28.094 59.9422 27.8843 59.7492 27.6091C59.5562 27.3339 59.4518 27.0063 59.4501 26.6701C59.4461 26.3472 59.5393 26.0305 59.7177 25.7612C59.896 25.4919 60.1512 25.2825 60.4501 25.1601C61.3505 24.7806 62.324 24.6064 63.3001 24.6501V24.6401ZM63.0701 5.77011C62.0888 5.767 61.1156 5.94673 60.2001 6.30011C59.3239 6.63199 58.5169 7.12365 57.8201 7.75011C57.1396 8.35163 56.5855 9.08247 56.1901 9.90011C55.7827 10.7273 55.5739 11.6381 55.5801 12.5601C55.5721 13.2418 55.6873 13.9194 55.9201 14.5601C56.1283 15.1697 56.4358 15.7407 56.8301 16.2501C57.2 16.748 57.6337 17.1952 58.1201 17.5801C58.5832 17.9539 59.0903 18.2696 59.6301 18.5201C59.2158 18.6461 58.8428 18.8809 58.5501 19.2001C58.3178 19.4535 58.177 19.7774 58.1501 20.1201C58.1332 20.4593 58.2319 20.7943 58.4301 21.0701C58.6811 21.4121 59.0297 21.6701 59.4301 21.8101C58.148 22.0604 56.9725 22.6952 56.0601 23.6301C55.3788 24.4784 55.0241 25.5427 55.0601 26.6301C55.0518 27.401 55.2485 28.1602 55.6301 28.8301C56.0375 29.5256 56.607 30.1122 57.2901 30.5401C58.0903 31.0475 58.9688 31.4192 59.8901 31.6401C61.006 31.9123 62.1516 32.0434 63.3001 32.0301C64.4354 32.0429 65.5677 31.9118 66.6701 31.6401C67.5856 31.4198 68.4555 31.0407 69.2401 30.5201C69.9134 30.0825 70.475 29.4935 70.8801 28.8001C71.2592 28.1401 71.456 27.3912 71.4501 26.6301C71.4601 25.9213 71.2978 25.2207 70.9773 24.5884C70.6568 23.9562 70.1877 23.4111 69.6101 23.0001C68.0515 21.9654 66.2393 21.3775 64.3701 21.3001C63.8515 21.2786 63.342 21.1563 62.8701 20.9401C62.5401 20.7601 62.3801 20.5701 62.3801 20.3501C62.3801 20.1301 62.5401 19.9301 62.8701 19.7201C63.3341 19.4658 63.844 19.306 64.3701 19.2501C66.1495 19.0254 67.7908 18.1747 69.0001 16.8501C69.5296 16.261 69.9526 15.5842 70.2501 14.8501C70.5407 14.1251 70.6901 13.3512 70.6901 12.5701C70.6912 11.5615 70.4512 10.5672 69.9901 9.67011H71.8301V6.22011H65.8301C64.9459 5.91393 64.0158 5.76172 63.0801 5.77011" fill="white"/>
<path d="M10.2301 8.62L14.0501 3.31H32.8101L36.6101 8.6C32.305 7.49588 27.8743 6.95801 23.4301 7C18.9758 6.97451 14.5376 7.53601 10.2301 8.67V8.62ZM42.3001 10.85L34.5001 0H12.3501L3.61009 12.16L5.32009 14.25L7.75009 17.25C9.6735 18.2628 11.7256 19.0097 13.8501 19.47L8.33009 12.69C13.1706 10.9553 18.2896 10.1281 23.4301 10.25C28.5673 10.1289 33.6828 10.956 38.5201 12.69L29.8701 23.24L26.9501 26.8L23.4401 31.08L19.9301 26.8L17.0001 23.25C15.4501 23.06 14.0001 22.81 12.7101 22.52L11.9501 22.32C6.53009 21 3.41009 18.79 3.32009 17L0.880087 14C0.30048 14.8705 -0.0059479 15.8942 8.74673e-05 16.94C8.74673e-05 21.85 6.93009 25.05 15.2301 26.31L23.4201 36.31L31.6201 26.31L34.8901 22.31L41.5301 14.21C42.8401 15.12 43.5301 16.06 43.5301 16.91C43.5301 17.76 42.7201 18.83 41.2201 19.79L36.7901 25.18C42.6001 23.54 46.7901 20.75 46.7901 16.91C46.7901 14.43 45.0401 12.39 42.2401 10.82" fill="white"/>
</g>
<defs>
<clipPath id="clip0">
<rect width="191.91" height="36.31" fill="white"/>
</clipPath>
</defs>
</svg>
