<svg width="285" height="54" viewBox="0 0 285 54" fill="none" xmlns="http://www.w3.org/2000/svg">
<path d="M199.416 29.1788H190.327L199.416 17.2812V29.1788ZM206.277 9.25039H198.658L182.872 30.2049V35.1424H199.416V42.9205H206.277V35.1424H211.341V29.1937H206.277V9.25039ZM250.383 11.1094C249.493 10.2318 248.409 9.57487 247.22 9.1909C245.986 8.77667 244.691 8.57061 243.389 8.58115C241.803 8.53781 240.225 8.80847 238.744 9.37759C237.264 9.94672 235.91 10.8031 234.76 11.8976C233.838 10.8424 232.698 10.0001 231.419 9.42885C230.231 8.88182 228.94 8.59292 227.632 8.58115C226.481 8.58277 225.342 8.82595 224.291 9.29501C223.234 9.7474 222.268 10.3873 221.439 11.1837V9.25039H214.994V35.2019H221.439V16.3592C222.13 15.699 222.916 15.1475 223.771 14.7233C224.59 14.364 225.476 14.1864 226.37 14.2027C226.98 14.2045 227.582 14.3382 228.136 14.5949C228.69 14.8516 229.181 15.2252 229.578 15.6899C230.53 16.8598 231.002 18.3484 230.899 19.8541V35.2019H237.359V19.7202C237.374 18.5233 237.24 17.3292 236.958 16.1658C237.718 15.5183 238.588 15.0143 239.527 14.6786C240.429 14.3619 241.379 14.201 242.334 14.2027C242.951 14.2049 243.56 14.3386 244.121 14.5951C244.681 14.8515 245.181 15.2248 245.587 15.6899C246.539 16.8598 247.011 18.3484 246.908 19.8541V35.2019H253.368V19.3336C253.405 17.6609 253.128 15.9962 252.552 14.4258C252.082 13.1599 251.348 12.0089 250.398 11.0499L250.383 11.1094ZM115.583 19.6607C116.048 18.0909 116.987 16.7037 118.271 15.6899C119.511 14.7132 121.046 14.1886 122.623 14.2027C124.234 14.1731 125.807 14.6981 127.078 15.6899C128.38 16.6931 129.331 18.0831 129.796 19.6607H115.583ZM132.35 12.3884C131.052 11.1859 129.541 10.2376 127.895 9.59244C126.228 8.92075 124.448 8.57738 122.652 8.58115C120.821 8.57266 119.007 8.93696 117.321 9.65193C115.661 10.3521 114.149 11.3614 112.866 12.6263C111.585 13.89 110.571 15.3978 109.882 17.0607C109.194 18.7236 108.845 20.5078 108.856 22.3079C108.839 24.106 109.192 25.8883 109.896 27.5429C110.597 29.1687 111.605 30.6434 112.866 31.8855C114.153 33.1462 115.664 34.155 117.321 34.8599C119.047 35.5807 120.901 35.9449 122.771 35.9306C124.621 35.9455 126.461 35.6644 128.221 35.0978C130.123 34.4485 131.904 33.4887 133.493 32.2573L129.35 28.108C128.476 28.842 127.467 29.3978 126.38 29.7439C125.254 30.1406 124.069 30.3467 122.875 30.3537C121.996 30.3583 121.122 30.2125 120.291 29.9224C119.519 29.656 118.797 29.2641 118.153 28.7624C117.529 28.2699 116.992 27.6768 116.564 27.0075C116.135 26.3464 115.795 25.6313 115.554 24.8808H136.345C136.345 24.4049 136.449 23.929 136.493 23.4828C136.538 23.0367 136.567 22.6054 136.567 22.189C136.588 20.355 136.228 18.5367 135.509 16.8496C134.791 15.1625 133.73 13.6433 132.394 12.3884H132.35ZM264.105 19.6607C264.57 18.0909 265.509 16.7037 266.793 15.6899C268.033 14.7132 269.568 14.1886 271.145 14.2027C272.756 14.1731 274.329 14.6981 275.6 15.6899C276.902 16.6931 277.853 18.0831 278.318 19.6607H264.105ZM283.916 16.6864C283.203 15.0616 282.167 13.5992 280.872 12.3884C279.572 11.1892 278.061 10.2413 276.417 9.59244C274.75 8.92183 272.97 8.57849 271.174 8.58115C269.328 8.56658 267.499 8.931 265.798 9.65193C264.139 10.3521 262.627 11.3614 261.343 12.6263C260.063 13.89 259.048 15.3978 258.36 17.0607C257.671 18.7236 257.322 20.5078 257.333 22.3079C257.32 24.1342 257.689 25.943 258.418 27.6172C259.119 29.2431 260.127 30.7177 261.388 31.9598C262.675 33.2206 264.186 34.2294 265.843 34.9342C267.569 35.6551 269.423 36.0193 271.293 36.005C273.143 36.0199 274.983 35.7387 276.743 35.1722C278.64 34.5224 280.417 33.5626 282.001 32.3316L277.931 28.2418C277.057 28.9759 276.048 29.5316 274.961 29.8778C273.835 30.2745 272.65 30.4805 271.457 30.4875C270.567 30.4956 269.683 30.3497 268.843 30.0562C268.071 29.7899 267.349 29.398 266.704 28.8962C266.081 28.4038 265.544 27.8107 265.115 27.1413C264.686 26.4802 264.347 25.7651 264.105 25.0146H284.822C284.822 24.5387 284.926 24.0628 284.971 23.6167C285.015 23.1705 284.971 22.7392 284.971 22.3228C284.998 20.4283 284.612 18.5507 283.842 16.8202L283.916 16.6864ZM175.966 11.1094C175.076 10.2318 173.992 9.57487 172.803 9.1909C171.569 8.77667 170.274 8.57061 168.972 8.58115C165.785 8.50553 162.698 9.69813 160.388 11.8976C159.466 10.8424 158.326 10.0001 157.047 9.42885C155.858 8.8831 154.567 8.59426 153.26 8.58115C152.108 8.58277 150.97 8.82595 149.918 9.29501C148.846 9.74267 147.865 10.3828 147.022 11.1837V9.25039H140.562V35.2019H147.022V16.3592C147.713 15.699 148.499 15.1475 149.354 14.7233C150.173 14.364 151.059 14.1864 151.953 14.2027C152.563 14.2045 153.165 14.3382 153.719 14.5949C154.273 14.8516 154.765 15.2252 155.161 15.6899C156.113 16.8598 156.585 18.3484 156.482 19.8541V35.2019H162.942V19.7202C162.957 18.5233 162.823 17.3292 162.541 16.1658C163.301 15.5183 164.171 15.0143 165.111 14.6786C166.012 14.3619 166.962 14.201 167.917 14.2027C168.534 14.2049 169.143 14.3386 169.704 14.5951C170.265 14.8515 170.764 15.2248 171.17 15.6899C172.122 16.8598 172.594 18.3484 172.491 19.8541V35.2019H178.951V19.3336C178.988 17.6609 178.711 15.9962 178.135 14.4258C177.659 13.1627 176.926 12.0128 175.981 11.0499L175.966 11.1094ZM98.4606 18.6792C98.4594 19.3172 98.3333 19.9488 98.0893 20.5382C97.8454 21.0947 97.4976 21.5995 97.0646 22.0254C96.6377 22.4571 96.134 22.8051 95.5795 23.0515C95.0017 23.3148 94.3728 23.4468 93.738 23.4382C93.1079 23.4481 92.4836 23.316 91.9114 23.0515C91.3574 22.8042 90.8539 22.4563 90.4263 22.0254C89.9933 21.5995 89.6455 21.0947 89.4016 20.5382C89.1506 19.951 89.0242 19.3179 89.0304 18.6792C89.0241 18.0453 89.1505 17.417 89.4016 16.8351C89.6501 16.2811 89.9974 15.7771 90.4263 15.3479C90.8539 14.917 91.3574 14.5691 91.9114 14.3217C92.4862 14.0651 93.1087 13.9333 93.738 13.935C94.3721 13.9339 94.9994 14.0656 95.5795 14.3217C96.134 14.5682 96.6377 14.9162 97.0646 15.3479C97.4936 15.7771 97.8408 16.2811 98.0893 16.8351C98.3332 17.4193 98.4594 18.046 98.4606 18.6792ZM94.0053 36.6445C95.4015 36.5949 96.7925 36.838 98.0893 37.3583C98.5583 37.5266 98.9627 37.8383 99.2452 38.2493C99.5276 38.6603 99.674 39.1498 99.6635 39.6486C99.6774 40.1381 99.5429 40.6203 99.2779 41.0318C99.0128 41.4433 98.6295 41.7647 98.1784 41.9538C95.5057 42.9497 92.5644 42.9497 89.8917 41.9538C89.4232 41.7811 89.0186 41.4692 88.732 41.0599C88.4453 40.6506 88.2904 40.1634 88.2878 39.6635C88.2819 39.1832 88.4203 38.7122 88.6851 38.3117C88.95 37.9112 89.329 37.5998 89.7729 37.4178C91.11 36.8535 92.5558 36.5944 94.0053 36.6594V36.6445ZM93.6638 8.58115C92.2065 8.57652 90.7611 8.84382 89.4016 9.36937C88.1004 9.86293 86.9019 10.5941 85.8672 11.5258C84.8566 12.4204 84.0337 13.5073 83.4465 14.7233C82.8415 15.9534 82.5313 17.308 82.5406 18.6792C82.5287 19.693 82.6997 20.7007 83.0455 21.6536C83.3547 22.5602 83.8114 23.4094 84.3969 24.1669C84.9462 24.9075 85.5903 25.5725 86.3127 26.1449C87.0004 26.7008 87.7535 27.1703 88.5551 27.5429C87.9398 27.7302 87.3859 28.0794 86.9513 28.5542C86.6063 28.9311 86.3972 29.4127 86.3572 29.9224C86.3321 30.4269 86.4787 30.925 86.7731 31.3352C87.1457 31.8438 87.6635 32.2275 88.2581 32.4357C86.3541 32.8079 84.6084 33.752 83.2534 35.1424C82.2417 36.404 81.7148 37.9868 81.7684 39.604C81.756 40.7505 82.0482 41.8796 82.6149 42.8758C83.2199 43.9101 84.0657 44.7826 85.0801 45.4189C86.2684 46.1735 87.573 46.7263 88.9413 47.0548C90.5984 47.4597 92.2997 47.6546 94.0053 47.6348C95.6913 47.6538 97.3729 47.4589 99.01 47.0548C100.37 46.7272 101.661 46.1634 102.827 45.3892C103.827 44.7383 104.661 43.8624 105.262 42.8312C105.825 41.8497 106.117 40.7359 106.109 39.604C106.123 38.5499 105.882 37.5079 105.407 36.5676C104.931 35.6273 104.234 34.8167 103.376 34.2055C101.062 32.6667 98.3702 31.7923 95.5944 31.6773C94.8242 31.6452 94.0676 31.4634 93.3668 31.1419C92.8767 30.8742 92.6391 30.5916 92.6391 30.2644C92.6391 29.9373 92.8767 29.6398 93.3668 29.3275C94.0558 28.9493 94.813 28.7117 95.5944 28.6285C98.2369 28.2944 100.674 27.0291 102.47 25.0593C103.257 24.1831 103.885 23.1766 104.327 22.0849C104.758 21.0066 104.98 19.8557 104.98 18.6941C104.982 17.194 104.625 15.7154 103.94 14.3812H106.673V9.25039H97.7626C96.4495 8.79504 95.0682 8.56868 93.6786 8.58115" fill="#E84427"/>
<path d="M15.1924 12.8196L20.8654 4.92261H48.7253L54.3686 12.7899C47.9752 11.1478 41.3953 10.3479 34.7953 10.4104C28.1805 10.3724 21.5894 11.2075 15.1924 12.894V12.8196ZM62.8186 16.1361L51.2351 0H18.3408L5.36124 18.0843L7.90071 21.1925L11.5094 25.6541C14.3658 27.1604 17.4134 28.2711 20.5684 28.9557L12.3708 18.8725C19.5593 16.2926 27.1613 15.0625 34.7953 15.2437C42.4245 15.0636 50.0214 16.2938 57.2051 18.8725L44.3592 34.5624L40.0228 39.8568L34.8102 46.222L29.5976 39.8568L25.2463 34.5773C22.9445 34.2947 20.7911 33.9229 18.8754 33.4916L17.7467 33.1942C9.69765 31.2311 5.06422 27.9444 4.93057 25.2823L1.30699 20.8207C0.446234 22.1153 -0.00883305 23.6378 0.000129895 25.1931C0.000129895 32.4952 10.2917 37.2542 22.6178 39.1281L34.7805 54L46.9581 39.1281L51.8143 33.1793L61.6751 21.133C63.6206 22.4864 64.6453 23.8843 64.6453 25.1484C64.6453 26.4126 63.4424 28.0039 61.2148 29.4316L54.6359 37.4475C63.2642 35.0085 69.4866 30.8593 69.4866 25.1484C69.4866 21.4602 66.8877 18.4263 62.7295 16.0914" fill="#E84427"/>
</svg>
