<svg width="135" height="26" viewBox="0 0 135 26" fill="none" xmlns="http://www.w3.org/2000/svg">
<path d="M94.4599 14.0489H90.1548L94.4599 8.32049V14.0489ZM97.7099 4.45378H94.1012L86.6234 14.543V16.9203H94.4599V20.6653H97.7099V16.9203H100.109V14.0561H97.7099V4.45378ZM118.602 5.34885C118.181 4.92633 117.667 4.61002 117.104 4.42514C116.519 4.22569 115.906 4.12648 115.289 4.13156C114.538 4.11069 113.791 4.24101 113.089 4.51503C112.388 4.78905 111.747 5.20139 111.202 5.72836C110.765 5.2203 110.225 4.81476 109.619 4.53971C109.056 4.27632 108.445 4.13722 107.826 4.13156C107.28 4.13234 106.741 4.24942 106.243 4.47526C105.742 4.69309 105.285 5.00117 104.892 5.38466V4.45378H101.839V16.949H104.892V7.87653C105.219 7.55869 105.591 7.29311 105.997 7.08887C106.384 6.91588 106.804 6.83038 107.228 6.83825C107.517 6.83907 107.802 6.90349 108.064 7.02708C108.327 7.15067 108.559 7.33052 108.747 7.55431C109.198 8.11759 109.422 8.8343 109.373 9.55926V16.949H112.433V9.49482C112.44 8.91853 112.376 8.34359 112.243 7.78344C112.603 7.47165 113.015 7.22902 113.46 7.06739C113.887 6.91489 114.337 6.83741 114.79 6.83825C115.082 6.83927 115.37 6.90366 115.636 7.02714C115.902 7.15062 116.138 7.33033 116.33 7.55431C116.781 8.11759 117.005 8.8343 116.956 9.55926V16.949H120.016V9.30864C120.034 8.50329 119.902 7.70178 119.63 6.94566C119.407 6.33613 119.059 5.78196 118.61 5.32021L118.602 5.34885ZM54.7499 9.46618C54.9701 8.71032 55.4149 8.04243 56.0231 7.55431C56.6102 7.08401 57.3372 6.83143 58.0843 6.83825C58.8475 6.824 59.5924 7.07676 60.1946 7.55431C60.8112 8.03733 61.2618 8.70656 61.482 9.46618H54.7499ZM62.6919 5.96466C62.0772 5.3857 61.3614 4.92909 60.5815 4.61848C59.7923 4.29507 58.9491 4.12974 58.0983 4.13156C57.2309 4.12747 56.3717 4.30287 55.5729 4.64712C54.7868 4.98422 54.0706 5.4702 53.4626 6.07923C52.8561 6.68767 52.3756 7.41366 52.0494 8.2143C51.7231 9.01494 51.5579 9.874 51.5632 10.7408C51.5549 11.6065 51.7226 12.4646 52.0557 13.2613C52.3877 14.0441 52.8655 14.7541 53.4626 15.3522C54.0722 15.9592 54.788 16.4449 55.5729 16.7843C56.3906 17.1314 57.2687 17.3067 58.1546 17.2998C59.0307 17.307 59.9022 17.1716 60.7363 16.8988C61.6371 16.5862 62.4809 16.1241 63.2336 15.5312L61.2709 13.5334C60.8569 13.8868 60.3789 14.1544 59.864 14.321C59.3305 14.512 58.7694 14.6113 58.2039 14.6146C57.7872 14.6169 57.3733 14.5466 56.9798 14.407C56.6143 14.2787 56.2721 14.09 55.9669 13.8484C55.6716 13.6113 55.4172 13.3258 55.2142 13.0035C55.011 12.6852 54.8501 12.3409 54.7358 11.9795H64.5842C64.5842 11.7504 64.6334 11.5213 64.6545 11.3064C64.6756 11.0916 64.6897 10.884 64.6897 10.6835C64.6994 9.80044 64.5287 8.92499 64.1884 8.11267C63.8481 7.30035 63.3457 6.56888 62.713 5.96466H62.6919ZM125.102 9.46618C125.323 8.71032 125.767 8.04243 126.376 7.55431C126.963 7.08401 127.69 6.83143 128.437 6.83825C129.2 6.824 129.945 7.07676 130.547 7.55431C131.164 8.03733 131.614 8.70656 131.834 9.46618H125.102ZM134.486 8.03406C134.149 7.25177 133.658 6.54767 133.044 5.96466C132.429 5.3873 131.713 4.93089 130.934 4.61848C130.145 4.29559 129.302 4.13028 128.451 4.13156C127.576 4.12454 126.71 4.3 125.904 4.64712C125.118 4.98422 124.402 5.4702 123.794 6.07923C123.188 6.68767 122.707 7.41366 122.381 8.2143C122.055 9.01494 121.889 9.874 121.895 10.7408C121.888 11.6201 122.063 12.491 122.408 13.2971C122.74 14.0799 123.218 14.7899 123.815 15.388C124.425 15.995 125.14 16.4807 125.925 16.8201C126.743 17.1672 127.621 17.3425 128.507 17.3356C129.383 17.3428 130.255 17.2074 131.089 16.9346C131.987 16.6218 132.829 16.1596 133.579 15.567L131.652 13.5978C131.238 13.9512 130.76 14.2188 130.245 14.3855C129.711 14.5765 129.15 14.6757 128.584 14.6791C128.163 14.683 127.744 14.6127 127.346 14.4714C126.981 14.3432 126.639 14.1545 126.333 13.9129C126.038 13.6758 125.784 13.3902 125.581 13.0679C125.378 12.7496 125.217 12.4053 125.102 12.044H134.916C134.916 11.8148 134.965 11.5857 134.986 11.3709C135.007 11.1561 134.986 10.9484 134.986 10.7479C134.999 9.83576 134.816 8.9317 134.451 8.09851L134.486 8.03406ZM83.3524 5.34885C82.9304 4.92633 82.4173 4.61002 81.854 4.42514C81.2692 4.22569 80.6558 4.12648 80.0391 4.13156C78.5296 4.09515 77.0674 4.66936 75.9731 5.72836C75.5362 5.2203 74.9962 4.81476 74.3903 4.53971C73.8272 4.27694 73.216 4.13787 72.5965 4.13156C72.0512 4.13234 71.512 4.24942 71.0138 4.47526C70.5059 4.6908 70.041 4.999 69.642 5.38466V4.45378H66.582V16.949H69.642V7.87653C69.969 7.55869 70.3413 7.29311 70.7464 7.08887C71.1342 6.91588 71.5542 6.83038 71.9775 6.83825C72.2665 6.83907 72.5519 6.90349 72.8142 7.02708C73.0764 7.15067 73.3094 7.33052 73.497 7.55431C73.948 8.11759 74.1718 8.8343 74.123 9.55926V16.949H77.1831V9.49482C77.1902 8.91853 77.1264 8.34359 76.9931 7.78344C77.3528 7.47165 77.7652 7.22902 78.2101 7.06739C78.6373 6.91489 79.0869 6.83741 79.5396 6.83825C79.8317 6.83927 80.1201 6.90366 80.3858 7.02714C80.6514 7.15062 80.8882 7.33033 81.0802 7.55431C81.5312 8.11759 81.755 8.8343 81.7063 9.55926V16.949H84.7663V9.30864C84.7836 8.50329 84.6523 7.70178 84.3794 6.94566C84.1543 6.33748 83.8068 5.78385 83.3594 5.32021L83.3524 5.34885ZM46.6391 8.99358C46.6385 9.30077 46.5788 9.60487 46.4632 9.88865C46.3477 10.1566 46.1829 10.3996 45.9778 10.6047C45.7756 10.8126 45.537 10.9801 45.2744 11.0988C45.0006 11.2255 44.7028 11.2891 44.4021 11.285C44.1036 11.2897 43.8079 11.2261 43.5368 11.0988C43.2744 10.9797 43.0359 10.8122 42.8334 10.6047C42.6283 10.3996 42.4635 10.1566 42.348 9.88865C42.2291 9.60592 42.1692 9.30112 42.1721 8.99358C42.1691 8.68835 42.2291 8.38588 42.348 8.10567C42.4657 7.83894 42.6302 7.59629 42.8334 7.38961C43.0359 7.18215 43.2744 7.01464 43.5368 6.89553C43.8091 6.77197 44.104 6.70852 44.4021 6.70936C44.7024 6.7088 44.9995 6.77221 45.2744 6.89553C45.537 7.0142 45.7756 7.18177 45.9778 7.38961C46.181 7.59629 46.3455 7.83894 46.4632 8.10567C46.5787 8.38695 46.6385 8.6887 46.6391 8.99358ZM44.5287 17.6435C45.19 17.6196 45.8489 17.7367 46.4632 17.9872C46.6854 18.0683 46.8769 18.2183 47.0107 18.4162C47.1445 18.6141 47.2138 18.8498 47.2089 19.09C47.2155 19.3256 47.1518 19.5578 47.0262 19.7559C46.9006 19.9541 46.7191 20.1088 46.5054 20.1999C45.2394 20.6794 43.8461 20.6794 42.5801 20.1999C42.3582 20.1167 42.1665 19.9666 42.0308 19.7695C41.895 19.5724 41.8216 19.3378 41.8204 19.0971C41.8176 18.8659 41.8831 18.6391 42.0086 18.4463C42.1341 18.2535 42.3136 18.1035 42.5238 18.0159C43.1572 17.7442 43.8421 17.6194 44.5287 17.6507V17.6435ZM44.3669 4.13156C43.6766 4.12933 42.992 4.25803 42.348 4.51107C41.7316 4.74871 41.1639 5.10077 40.6738 5.54935C40.1951 5.98007 39.8053 6.50339 39.5271 7.08887C39.2406 7.68118 39.0936 8.33335 39.098 8.99358C39.0924 9.48172 39.1734 9.96688 39.3372 10.4257C39.4837 10.8622 39.7 11.2711 39.9773 11.6358C40.2375 11.9924 40.5426 12.3126 40.8848 12.5882C41.2106 12.8558 41.5673 13.0819 41.947 13.2613C41.6555 13.3515 41.3932 13.5196 41.1873 13.7482C41.0239 13.9297 40.9248 14.1616 40.9059 14.407C40.894 14.6499 40.9634 14.8897 41.1029 15.0872C41.2794 15.3321 41.5246 15.5168 41.8063 15.6171C40.9044 15.7963 40.0775 16.2509 39.4357 16.9203C38.9564 17.5277 38.7069 18.2899 38.7322 19.0685C38.7264 19.6205 38.8648 20.1641 39.1332 20.6438C39.4198 21.1418 39.8204 21.5619 40.3009 21.8683C40.8638 22.2316 41.4818 22.4977 42.1299 22.6559C42.9149 22.8509 43.7208 22.9447 44.5287 22.9352C45.3273 22.9443 46.1239 22.8505 46.8993 22.6559C47.5434 22.4982 48.1552 22.2267 48.7072 21.8539C49.1808 21.5406 49.5759 21.1188 49.8609 20.6223C50.1276 20.1498 50.266 19.6135 50.2618 19.0685C50.2688 18.561 50.1547 18.0593 49.9293 17.6065C49.7038 17.1538 49.3738 16.7635 48.9675 16.4692C47.8711 15.7283 46.5963 15.3073 45.2814 15.2519C44.9166 15.2365 44.5582 15.1489 44.2262 14.9941C43.9941 14.8652 43.8815 14.7292 43.8815 14.5717C43.8815 14.4141 43.9941 14.2709 44.2262 14.1205C44.5526 13.9384 44.9113 13.824 45.2814 13.784C46.5331 13.6231 47.6877 13.0139 48.5384 12.0655C48.9109 11.6436 49.2084 11.159 49.4177 10.6333C49.6221 10.1142 49.7272 9.56004 49.7272 9.00074C49.728 8.2785 49.5591 7.56654 49.2348 6.92418H50.5292V4.45378H46.3084C45.6865 4.23454 45.0321 4.12555 44.3739 4.13156" fill="#252525"/>
<path d="M7.1964 6.1724L9.8836 2.37015H23.0804L25.7535 6.15808C22.7251 5.36747 19.6083 4.98233 16.482 5.01239C13.3486 4.99414 10.2266 5.39621 7.1964 6.20821V6.1724ZM29.7562 7.76921L24.2693 0H8.68773L2.53953 8.70724L3.74244 10.2038L5.45184 12.352C6.80487 13.0772 8.24843 13.612 9.74291 13.9416L5.85984 9.08675C9.26493 7.84459 12.8659 7.25229 16.482 7.33958C20.0958 7.25285 23.6943 7.84514 27.0971 9.08675L21.0123 16.6411L18.9582 19.1903L16.489 22.255L14.0199 19.1903L11.9588 16.6483C10.8684 16.5123 9.84843 16.3332 8.94097 16.1256L8.40635 15.9824C4.59362 15.0372 2.39884 13.4547 2.33553 12.173L0.619102 10.0248C0.211374 10.6481 -0.00418408 11.3812 6.15293e-05 12.13C6.15293e-05 15.6458 4.875 17.9372 10.7137 18.8394L16.475 26L22.2433 18.8394L24.5436 15.9752L29.2145 10.1752C30.1361 10.8268 30.6214 11.4999 30.6214 12.1085C30.6214 12.7172 30.0517 13.4833 28.9965 14.1708L25.8802 18.0303C29.9672 16.856 32.9147 14.8582 32.9147 12.1085C32.9147 10.3327 31.6837 8.87194 29.714 7.74773" fill="#252525"/>
</svg>
